/* XPM */
static char * logo_xpm[] = {
"98 32 32 1",
" 	c None",
".	c #000100",
"+	c #01080B",
"@	c #0B1113",
"#	c #181917",
"$	c #0D1D24",
"%	c #142A36",
"&	c #2C2D2B",
"*	c #15394A",
"=	c #18475F",
"-	c #424341",
";	c #484A47",
">	c #1D5572",
",	c #515351",
"'	c #1F6381",
")	c #126B94",
"!	c #1278A6",
"~	c #666765",
"{	c #1386BC",
"]	c #0A92CF",
"^	c #7F807E",
"/	c #8C8E8B",
"(	c #959794",
"_	c #9C9E9B",
":	c #A7A9A6",
"<	c #B1B3B0",
"[	c #B9BBB7",
"}	c #CBCDCA",
"|	c #D1D4D0",
"1	c #DCDEDB",
"2	c #E6E8E4",
"3	c #F0F2EF",
"..................................................................................................",
"..................................................................................................",
".................+=...............................................................................",
".................>{...............................................................................",
"................+]]=..............................................................................",
"................*]]!..............................................................................",
"................!]]]$.............................................................................",
"...............%]]]]).................................@;&.......+*..@.............................",
"...............)]]]]]$................................}3~.......${.*).............................",
"..............+{]]]]]>................................|3~.......${................................",
"..............%=]]]]]]+........;/__^&..#;,.-~&.#;,-#..|3~@&&....${................................",
".............@])']]]]]'.......#233333,./3|}32-_23332/.|1_2331^@.${.$>.>*%!{{>..%'.....'+$$...+$...",
".............>]]{!]]]]{@......&3}<[231./3333<[3333332.}133}133_.${.=).))!%@%{>.=!....+]@${@..)'...",
"............+{]]]]]]]]]>.......~(:_:33#/33(#&23},#-:;.|3|&..:3|.${.=).)!+...%{.=!....+]@.>!+={+...",
"............']]]]]]]]]]]@.....(3333333#/31..^32&......|3~...~3|.${.=).)>....@{+=!....+]@..!'{%....",
"...........@{]]]]]]]]]]]>....-33}~^233#/31.._3|.......|3~...~3|.${.=).)>....@{+=!....+]@..@{>.....",
"...........>]]]]]]]]]]]]]@...~33#..~33#/31..^32&......|3~...~3|.${.=).)>....+{+=!....+]@..*{!+....",
"..........$]]]]]]]]]]]]]])...~33-..(33#/31..#23<...^-.|3~...~3}.${.=).)>....+{+=!....$]@.$]$>)....",
"..........)]]]]]!$@>]]]]]]$..#232<}3|3#/31...:331:}32&}3~...~3}.${.=).)>....+]+*{....)]@.!=.+!*...",
".........$]]]]]]@...)]]]]])...,1333}<3#/3|...._23332(.|3~...~3}.${.=).)>....@]+@{!*=!>]@>)...@{$..",
".........!]]]]]>....+]]]]]]%...@;,-@;#.&-@.....#;,;#..,-@...&,&..$.@$.$+....+%..+>!)%+*.$+....%@..",
"........%]]]]]]$.....!]]]]])......................................................................",
"........!]]]]]]@.....)]]]{'{$.....................................................................",
".......=]]]]]]]@.....)]]]]])@.....................................................................",
"......+{]]]]]]{@.....)]]]]]]!@....................................................................",
"......=]]]]])%........$={]]]]!....................................................................",
".....@]]]!*@.............%)]]]=...................................................................",
".....>]!*..................@)]{+..................................................................",
"....@{%......................@)=..................................................................",
"....%+.........................%..................................................................",
"..................................................................................................",
".................................................................................................."};
